<?xml version="1.0" encoding="UTF-8"?>
<svg id="_Слой_2" data-name="Слой 2" xmlns="http://www.w3.org/2000/svg" xmlns:xlink="http://www.w3.org/1999/xlink" viewBox="0 0 250 158">
  <defs>
    <style>
      .cls-1 {
        filter: url(#drop-shadow-1);
      }

      .cls-1, .cls-2, .cls-3 {
        fill: #fffde1;
      }

      .cls-2 {
        filter: url(#drop-shadow-2);
      }

      .cls-3 {
        filter: url(#drop-shadow-3);
      }
    </style>
    <filter id="drop-shadow-1" filterUnits="userSpaceOnUse">
      <feOffset dx="12" dy="12"/>
      <feGaussianBlur result="blur" stdDeviation="10"/>
      <feFlood flood-color="#000" flood-opacity="1"/>
      <feComposite in2="blur" operator="in"/>
      <feComposite in="SourceGraphic"/>
    </filter>
    <filter id="drop-shadow-2" filterUnits="userSpaceOnUse">
      <feOffset dx="12" dy="12"/>
      <feGaussianBlur result="blur-2" stdDeviation="10"/>
      <feFlood flood-color="#000" flood-opacity="1"/>
      <feComposite in2="blur-2" operator="in"/>
      <feComposite in="SourceGraphic"/>
    </filter>
    <filter id="drop-shadow-3" filterUnits="userSpaceOnUse">
      <feOffset dx="12" dy="12"/>
      <feGaussianBlur result="blur-3" stdDeviation="10"/>
      <feFlood flood-color="#000" flood-opacity="1"/>
      <feComposite in2="blur-3" operator="in"/>
      <feComposite in="SourceGraphic"/>
    </filter>
  </defs>
  <g id="_SMM" data-name="+SMM">
    <path class="cls-1" d="m177.83,18.99H48.06c-16.34,0-29.59,13.25-29.59,29.59v37.05c0,16.34,13.25,29.59,29.59,29.59h129.77c16.34,0,29.58-13.25,29.58-29.59v-37.05c0-16.34-13.24-29.59-29.58-29.59Zm14.78,59.35h-.07v1.41c-.02.46-.05.94-.07,1.4,0,.26,0,.52,0,.78-.02.42-.05.84-.07,1.25v1.48h-.07c0,.07,0,.16,0,.23,0,.11,0,.21,0,.31,0,.1,0,.21,0,.31-.02.18-.05.36-.07.55-.3,3.05-1.02,5.99-2.32,8.76-.89,1.9-2.08,3.58-3.53,5.1-1.34,1.42-2.83,2.63-4.5,3.63-1.89,1.12-3.93,1.89-6.07,2.38-1.22.29-2.47.47-3.71.69-.17.03-.36.02-.54.02-.63.06-1.25.11-1.87.16h-.24c-.41.02-.83.05-1.24.07-.16,0-.31,0-.47,0-.36.02-.73.05-1.09.07h-.85c-.62.02-1.25.05-1.87.07-.62,0-1.25,0-1.87,0-.32.02-.65.07-.97.07-2.24,0-4.5,0-6.75,0h-10.06c-1.12-.02-2.24-.05-3.35-.07-.36,0-.73,0-1.09,0-.05,0-.1,0-.16,0-.46-.02-.94-.06-1.4-.08h-.47c-.44-.02-.88-.05-1.32-.07-.12,0-.26,0-.39,0-4.07-.16-7.99-.91-11.64-2.78-2.51-1.28-4.6-3.11-6.38-5.27-2.42-2.93-3.73-6.35-4.45-10.04-.08-.44-.2-.88-.29-1.32-.02-.12,0-.26,0-.38-.02-.18-.05-.36-.07-.55v-.23c-.02-.16-.05-.31-.07-.47,0-.1,0-.21,0-.31-.02-.22-.05-.42-.07-.63v-1.09c-.02-.07-.05-.16-.07-.23v-1.4c-.02-.5-.05-.99-.07-1.48,0-.21,0-.41,0-.63-.02-.62-.05-1.24-.07-1.87v-1.87c-.02-.1-.05-.21-.07-.31v-15.68c0-1.32,0-2.63,0-3.95,0-.24.05-.49.07-.73v-1.09c.02-.52.05-1.04.07-1.56,0-.21,0-.41,0-.63.02-.46.05-.94.07-1.4v-1.25s.05-.1.07-.15v-.79s.06-.1.08-.15c0-.13,0-.26,0-.39,0-.08,0-.16,0-.24l.15-1.09c.21-1,.38-2.01.63-3.01.51-2.03,1.23-3.99,2.31-5.8.89-1.49,1.9-2.91,3.22-4.07.65-.6,1.25-1.24,1.95-1.79,2.09-1.63,4.45-2.73,6.98-3.5,1.66-.5,3.36-.79,5.08-1,.17-.02.34,0,.51-.02h.07c.24-.02.47-.05.7-.07.07,0,.16,0,.23,0,.26-.02.52-.05.78-.07h.55c.31-.02.63-.05.94-.07.24,0,.47,0,.7,0,.39-.02.78-.05,1.17-.07h.16c.62-.02,1.24-.07,1.86-.07,1.04,0,2.1,0,3.15,0,.17,0,.35-.05.53-.07h18.95c.12.02.25.07.38.07,1.61.06,3.23.11,4.84.17,4.13.12,8.13.85,11.85,2.73,1.71.87,3.25,2,4.64,3.33,1.7,1.62,3.12,3.44,4.17,5.54,1.13,2.31,1.9,4.74,2.27,7.3.12.82.22,1.65.31,2.47.02.18.05.36.07.55,0,.18,0,.36,0,.55,0,.12,0,.26,0,.39v.07c.03.52.06,1.04.08,1.56v.24c.02.51.05,1.04.07,1.56v.46c.02.81.06,1.61.08,2.42v2.26s.05,0,.07,0v19.41Z"/>
    <path class="cls-2" d="m166.1,67.49s-.1.06-.15.08v.46c-.06,1.56-.45,3.02-1.05,4.45-.63,1.47-1.52,2.78-2.62,3.92-1.82,1.86-3.99,3.14-6.54,3.72-.67.15-1.36.21-2.04.31-.12,0-.26,0-.39,0-.02.02-.05.05-.07.07h-1.09s-.11-.05-.16-.07c-.1,0-.21,0-.31,0-1.44-.07-2.82-.43-4.14-.99-1.55-.65-2.93-1.56-4.13-2.73-1.46-1.44-2.54-3.13-3.25-5.07-.41-1.14-.67-2.32-.72-3.53v-.47l-.07-.07c.02-.34.05-.68.07-1.02.02-1.71.46-3.32,1.15-4.89.65-1.44,1.54-2.71,2.63-3.83,1.22-1.24,2.64-2.21,4.25-2.89,1.47-.63,3-1.01,4.6-1.04.29,0,.57-.05.85-.07.19.02.38.05.58.07.66.08,1.34.12,2,.26,3.35.74,6.04,2.51,8.02,5.3,1.55,2.18,2.41,4.6,2.43,7.3.02.03.05.06.07.08.02.21.05.41.07.62Z"/>
    <path class="cls-3" d="m185.29,61.96c.02-.19.07-.38.07-.57,0-1.27,0-2.53,0-3.8,0-.15,0-.31,0-.46,0-.5,0-.99,0-1.48-.05-.08-.1-.16-.15-.24.02-.41.05-.83.07-1.24v-.78c-.02-.08-.05-.16-.07-.23,0-.24,0-.47,0-.7,0-.18,0-.36,0-.55v-.23c-.02-.08-.06-.16-.08-.24v-1.24c-.02-.08-.05-.16-.07-.23v-.24c-.02-.26-.06-.51-.08-.78-.24-1.3-.41-2.62-.74-3.89-.6-2.38-1.8-4.44-3.57-6.15-1.21-1.17-2.58-2.08-4.14-2.72-1.87-.77-3.82-1.18-5.82-1.35h-.23c-.21-.02-.41-.05-.62-.07-.16,0-.31,0-.47,0-.07-.02-.16-.05-.23-.07h-1.41c-.39-.02-.78-.05-1.17-.07-.31,0-.62,0-.94,0-.52-.02-1.04-.05-1.56-.07h-3.67c-.21-.02-.41-.07-.61-.07h-6.72c-.21,0-.41.05-.61.07h-8.5c-.24,0-.49,0-.73,0-.54.02-1.08.05-1.61.07-.52,0-1.04,0-1.57,0h-1.08s0,.05,0,.07h-1.79v.07c-.23,0-.47,0-.7,0-.1,0-.21,0-.31,0-.16,0-.31,0-.47,0v.07h-.86l-.07.07h-.23c-.18.02-.36.05-.55.07-.02,0-.05,0-.08,0-1.18.23-2.38.41-3.54.72-2.78.75-5.08,2.28-6.86,4.53-1.9,2.38-2.73,5.18-3.08,8.16-.03.08-.06.16-.08.24v.62c-.02.23-.05.46-.07.7,0,.1,0,.21,0,.31-.02.08-.05.16-.07.24v1.32s-.05.1-.07.15c0,.16,0,.31,0,.47h0v1.56s-.06.11-.08.16v.7c0,.16,0,.31,0,.46,0,.75,0,1.51,0,2.26-.02.11-.05.21-.07.31v12.87c.02.26.05.52.07.78,0,.42-.03.84-.02,1.27,0,1.42.02,2.85.03,4.27,0,.1,0,.21,0,.31v1.25c.02.13.06.26.08.39v1.09c0,.13,0,.26,0,.39,0,.18,0,.36,0,.55.02.07.05.16.07.23v1.56c.02.06.05.11.07.16,0,.21,0,.42,0,.63,0,.15,0,.31,0,.46,0,.02,0,.05,0,.07.02.06.05.11.07.16v.39c.02.22.05.42.07.63,0,.05,0,.1,0,.16.11,1.42.39,2.79.8,4.15.58,1.92,1.49,3.65,2.83,5.14,1.51,1.66,3.3,2.92,5.43,3.66,1.61.56,3.25.95,4.96,1.08.29.02.57.06.86.08h.23c.11.02.21.05.31.07.05,0,.1,0,.16,0,.16,0,.31,0,.46,0,.18,0,.36,0,.55,0,.08.02.16.05.23.07h1.8s.1.05.16.07c.28,0,.57,0,.85,0,.08,0,.16,0,.24,0h2.26c.07.02.16.05.23.08h15.68s.1-.06.16-.08c1.51,0,3.01,0,4.52,0,.02,0,.05,0,.07,0h1.41c.07-.02.16-.05.23-.07h2.03s.1-.05.16-.07c.23,0,.46,0,.7,0,.13,0,.26,0,.39,0,.16,0,.31,0,.47,0,.05-.02.1-.05.16-.07h1.01c.11-.02.21-.05.31-.07.05,0,.1,0,.16,0,.18,0,.36,0,.55,0,.1-.03.21-.06.31-.08,2.17-.19,4.26-.7,6.22-1.65,2.7-1.3,4.71-3.33,6.04-6,1.09-2.18,1.54-4.54,1.76-6.94.02-.15-.04-.31-.07-.46v-.31s.1-.05.15-.07c0,.02.02.04.05.06-.02-.02-.03-.04-.04-.06v-.39c0-.16,0-.31,0-.47,0-.21,0-.41,0-.62.02-.02.05-.06.07-.08v-.7c-.02-.11-.05-.22-.07-.31v-.94h.15c0-.41,0-.84,0-1.25-.02-.1-.06-.21-.08-.31.02-.55.06-1.12.07-1.68.02-.3,0-.59,0-.89h.07v-13.72c-.05-.24-.11-.47-.16-.7Zm-12.16,6.24c-.02.39-.05.78-.08,1.17,0,.13,0,.26,0,.39v.08c-.29,1.23-.52,2.47-.89,3.67-.97,3.16-2.68,5.89-5.03,8.21-.3.3-.58.6-.87.9-.16.1-.33.2-.49.31-.65.47-1.27.99-1.93,1.42-1.96,1.32-4.1,2.23-6.4,2.75-.67.15-1.34.28-2.02.42-.05,0-.1,0-.15,0-.08,0-.16,0-.24,0-.07,0-.15,0-.23,0-.02.02-.05.05-.07.07h-.86v.07h-2.34s0-.05,0-.07h-.85v-.07c-.11,0-.21,0-.31,0-.07,0-.15,0-.23,0h-.07c-1.15-.27-2.32-.46-3.44-.8-2.52-.75-4.79-1.99-6.82-3.65-.19-.16-.38-.31-.57-.46-.05-.05-.11-.1-.16-.16-1.48-1.31-2.73-2.8-3.77-4.49-1.33-2.16-2.26-4.5-2.72-7.01-.12-.6-.2-1.23-.3-1.84v-1.01s-.06-.06-.08-.08v-1.56s.06-.05.08-.08v-.93c.02-.12.06-.23.07-.35.33-3.14,1.37-6.04,3.07-8.69,1.43-2.25,3.24-4.18,5.43-5.71,2.82-1.96,5.9-3.25,9.36-3.58.23-.02.46-.05.7-.07.02-.02.06-.05.08-.07h.46c.34,0,.68,0,1.02,0h.46c.26,0,.52,0,.78,0h.7s.05.05.08.07c1.05.16,2.12.23,3.15.49,4.46,1.13,8.16,3.49,11.05,7.07,1.99,2.47,3.33,5.25,4,8.36.17.79.29,1.61.43,2.41v.78s.05.06.07.08c0,.62,0,1.24,0,1.87-.03.02-.06.05-.08.07Zm5.61-22.61c.02,2.23-.99,3.81-3.02,4.7-.46.21-1,.26-1.5.37h-.62c-.13-.02-.25-.07-.38-.08-2.14-.33-3.78-2.08-4-4.21,0-.13-.09-.26-.14-.39.02-.12.05-.26.07-.39.02-.13.07-.27.08-.41.1-.77.39-1.47.84-2.1.82-1.16,1.98-1.79,3.37-2h1.01c1.43.22,2.6.85,3.44,2.05.47.68.71,1.44.85,2.24v.23Z"/>
  </g>
</svg>