<?xml version="1.0" encoding="UTF-8"?>
<svg id="_Слой_2" data-name="Слой 2" xmlns="http://www.w3.org/2000/svg" xmlns:xlink="http://www.w3.org/1999/xlink" viewBox="0 0 405.62 97.56">
  <defs>
    <style>
      .cls-1, .cls-2 {
        fill: none;
        stroke: #100000;
        stroke-miterlimit: 10;
        stroke-width: 3px;
      }

      .cls-3 {
        fill: #fff;
      }

      .cls-4 {
        fill: #fffde1;
        filter: url(#drop-shadow-1);
      }

      .cls-5 {
        letter-spacing: 0em;
      }

      .cls-6 {
        filter: url(#drop-shadow-2);
      }

      .cls-7 {
        font-family: Montserrat-Light, Montserrat;
        font-size: 45.42px;
        font-variation-settings: 'wght' 300;
        font-weight: 300;
      }

      .cls-2 {
        stroke-dasharray: 0 0 12.17 12.17;
      }

      .cls-8 {
        letter-spacing: 0em;
      }
    </style>
    <filter id="drop-shadow-1" filterUnits="userSpaceOnUse">
      <feOffset dx="4" dy="4"/>
      <feGaussianBlur result="blur" stdDeviation="20"/>
      <feFlood flood-color="#000" flood-opacity="1"/>
      <feComposite in2="blur" operator="in"/>
      <feComposite in="SourceGraphic"/>
    </filter>
    <filter id="drop-shadow-2" filterUnits="userSpaceOnUse">
      <feOffset dx="4" dy="4"/>
      <feGaussianBlur result="blur-2" stdDeviation="20"/>
      <feFlood flood-color="#000" flood-opacity="1"/>
      <feComposite in2="blur-2" operator="in"/>
      <feComposite in="SourceGraphic"/>
    </filter>
  </defs>
  <g id="_menu" data-name="+menu">
    <g id="Bar">
      <path class="cls-4" d="m48.78,0c-13.47,0-25.66,5.46-34.49,14.29C5.54,23.04.1,35.09,0,48.41c-.2,27.03,22.61,49.15,49.64,49.15h335.98c11.05,0,20-8.95,20-20V20c0-11.05-8.95-20-20-20H48.78Zm-.68,82.56c-18.65,0-33.78-15.12-33.78-33.78S29.44,15.01,48.1,15.01s33.78,15.12,33.78,33.78-15.12,33.78-33.78,33.78Z"/>
      <g class="cls-6">
        <path class="cls-3" d="m45.99,64.62v-.22c0-3.33,0-6.65,0-9.98,0-.11-.04-.24-.11-.32-4.17-5.32-8.34-10.63-12.52-15.94-.66-.83-.99-1.75-.93-2.81.1-1.73,1.55-3.28,3.27-3.47.23-.03.47-.04.7-.04,7.72,0,15.43,0,23.15,0,1.52,0,2.7.61,3.47,1.92.8,1.37.65,3.02-.34,4.28-4.21,5.36-8.42,10.72-12.63,16.08-.06.07-.1.18-.1.27,0,3.35,0,6.7,0,10.05v.18c.09,0,.17,0,.24,0,1.84,0,3.68,0,5.52,0,.46,0,.89.09,1.28.36.7.49,1.01,1.36.76,2.19-.23.8-.99,1.38-1.83,1.4-.35,0-.71,0-1.06,0-4.9,0-9.8,0-14.69,0-.93,0-1.66-.5-1.95-1.33-.42-1.19.42-2.49,1.68-2.59.16-.01.32-.02.48-.02,1.79,0,3.57,0,5.36,0,.08,0,.15,0,.26,0Zm-9.46-28.83s.03.06.04.07c1.31,1.67,2.63,3.35,3.95,5.02.04.06.15.09.23.09,4.81,0,9.63,0,14.44,0,.12,0,.19-.04.27-.14,1.12-1.43,2.23-2.85,3.35-4.27.2-.25.39-.5.61-.78h-22.88Z"/>
      </g>
      <text class="cls-7" transform="translate(134.27 66.79)"><tspan class="cls-5" x="0" y="0">B</tspan><tspan class="cls-8" x="33.71" y="0">AR</tspan></text>
      <g>
        <line class="cls-1" x1="280.86" y1=".19" x2="280.86" y2="6.19"/>
        <line class="cls-2" x1="280.86" y1="18.36" x2="280.86" y2="85.29"/>
        <line class="cls-1" x1="280.86" y1="91.37" x2="280.86" y2="97.37"/>
      </g>
    </g>
  </g>
</svg>