<?xml version="1.0" encoding="UTF-8"?>
<svg id="_Слой_2" data-name="Слой 2" xmlns="http://www.w3.org/2000/svg" xmlns:xlink="http://www.w3.org/1999/xlink" viewBox="0 0 250 157">
  <defs>
    <style>
      .cls-1 {
        fill: #fffde1;
        filter: url(#drop-shadow-1);
      }
    </style>
    <filter id="drop-shadow-1" filterUnits="userSpaceOnUse">
      <feOffset dx="12" dy="12"/>
      <feGaussianBlur result="blur" stdDeviation="10"/>
      <feFlood flood-color="#000" flood-opacity="1"/>
      <feComposite in2="blur" operator="in"/>
      <feComposite in="SourceGraphic"/>
    </filter>
  </defs>
  <g id="_SMM" data-name="+SMM">
    <path id="Event" class="cls-1" d="m177.68,18.31H47.9c-16.34,0-29.58,13.25-29.58,29.59v37.05c0,16.34,13.24,29.59,29.58,29.59h129.78c16.34,0,29.58-13.25,29.58-29.59v-37.05c0-16.34-13.24-29.59-29.58-29.59Zm-64.34,73.86c-.02.17-.07.33-.07.5-.09,1.44-.43,2.82-.98,4.16-1.01,2.46-2.61,4.49-4.68,6.14-2.57,2.05-5.51,3.09-8.79,3.13-3.11.03-6.21,0-9.32,0q-.69,0-.69-.68v-16.85c0-4.19,0-8.37,0-12.56,0-.2.1-.41.15-.6h9.82c.1-.12.28-.24.3-.37.49-3.7.97-7.4,1.45-11.1.04-.3-.04-.45-.36-.43h-11.14c-.31-.08-.22-.34-.22-.55,0-2.49-.03-4.98,0-7.48.02-.8.14-1.62.35-2.39.31-1.09.94-2,2.05-2.41.67-.26,1.38-.37,2.08-.55h.07c.31-.02.62-.05.94-.07,1.52,0,3.04,0,4.55,0,.53,0,1.06,0,1.59,0,.56,0,.58-.02.58-.6v-9.51c0-.09,0-.17,0-.26,0-.24-.12-.36-.36-.37-.6-.06-1.2-.11-1.81-.17h-.23c-.26-.02-.51-.05-.77-.07-.16,0-.31,0-.46,0-.31-.02-.62-.05-.93-.07h-.93c-.51-.02-1.04-.05-1.55-.07h-2.94c-.31.02-.62.05-.93.07h-.16c-.29.02-.59.04-.88.08-2.3.3-4.48.97-6.41,2.29-.84.58-1.59,1.3-2.38,1.95-.84.91-1.56,1.92-2.13,3.02-.86,1.68-1.33,3.48-1.58,5.34-.02.12-.05.25-.08.37v.23c0,.13,0,.26,0,.39,0,.07,0,.16,0,.23h-.07v10.01c0,.56-.02.58-.59.59h-9.46c-.1.05-.21.1-.31.15v11.05c0,.13-.04.27,0,.38.07.12.2.22.3.32h9.35c.13,0,.28-.03.39.02.12.06.24.18.3.31.05.11.02.26.02.38v29.3c0,.13.03.28-.02.38-.06.12-.18.26-.31.31-.14.05-.31,0-.46,0h-27.67c-.15-.02-.3-.06-.46-.07-1.23-.08-2.43-.34-3.58-.76-2.41-.89-4.45-2.34-6.15-4.27-1.85-2.1-3.03-4.52-3.46-7.29-.07-.46-.13-.92-.19-1.37v-51.65c.02-.12.06-.25.07-.38.12-1.63.53-3.2,1.22-4.68.89-1.95,2.19-3.59,3.78-5.02,2.19-1.95,4.72-3.15,7.62-3.54.38-.05.76-.1,1.14-.15h51.5c.12.02.25.07.37.07,1.68.11,3.28.53,4.8,1.24,1.95.9,3.61,2.19,5.03,3.82,1.29,1.48,2.28,3.14,2.91,5.01.43,1.25.59,2.55.73,3.86v51.26Z"/>
  </g>
</svg>