<?xml version="1.0" encoding="UTF-8"?>
<svg id="_Слой_2" data-name="Слой 2" xmlns="http://www.w3.org/2000/svg" xmlns:xlink="http://www.w3.org/1999/xlink" viewBox="0 0 394.35 97.97">
  <defs>
    <style>
      .cls-1, .cls-2 {
        fill: none;
        stroke: #100000;
        stroke-miterlimit: 10;
        stroke-width: 3px;
      }

      .cls-3 {
        fill: #fff;
      }

      .cls-4 {
        fill: #fffde1;
        filter: url(#drop-shadow-1);
      }

      .cls-5 {
        letter-spacing: 0em;
      }

      .cls-6 {
        filter: url(#drop-shadow-2);
      }

      .cls-7 {
        font-family: Montserrat-Light, Montserrat;
        font-size: 45.42px;
        font-variation-settings: 'wght' 300;
        font-weight: 300;
      }

      .cls-2 {
        stroke-dasharray: 0 0 12.28 12.28;
      }
    </style>
    <filter id="drop-shadow-1" filterUnits="userSpaceOnUse">
      <feOffset dx="4" dy="4"/>
      <feGaussianBlur result="blur" stdDeviation="20"/>
      <feFlood flood-color="#000" flood-opacity="1"/>
      <feComposite in2="blur" operator="in"/>
      <feComposite in="SourceGraphic"/>
    </filter>
    <filter id="drop-shadow-2" filterUnits="userSpaceOnUse">
      <feOffset dx="4" dy="4"/>
      <feGaussianBlur result="blur-2" stdDeviation="20"/>
      <feFlood flood-color="#000" flood-opacity="1"/>
      <feComposite in2="blur-2" operator="in"/>
      <feComposite in="SourceGraphic"/>
    </filter>
  </defs>
  <g id="_menu" data-name="+menu">
    <g id="Food">
      <path class="cls-4" d="m344.71.41H20c-11.05,0-20,8.95-20,20v57.56c0,11.05,8.95,20,20,20h325.57c13.47,0,25.67-5.46,34.49-14.29,8.75-8.75,14.19-20.8,14.29-34.12.2-27.03-22.61-49.15-49.64-49.15Zm2.25,82.56c-18.65,0-33.78-15.12-33.78-33.78s15.12-33.78,33.78-33.78,33.78,15.12,33.78,33.78-15.12,33.78-33.78,33.78Z"/>
      <g class="cls-6">
        <g>
          <path class="cls-3" d="m345.47,37.55h8.18v-6.66h3.23v6.65h8.22c0,.09,0,.16,0,.23-.2,1.99-.4,3.98-.6,5.97-.19,1.87-.37,3.74-.56,5.6-.21,2.11-.43,4.22-.64,6.33-.2,1.98-.4,3.97-.59,5.95-.1,1.02-.19,2.05-.31,3.07-.15,1.32-1.23,2.35-2.56,2.4-.91.03-1.83.01-2.74.01-.03,0-.06,0-.11-.02v-.27c0-4.28,0-8.57,0-12.85,0-1.55-.22-3.05-.83-4.48-.53-1.25-1.32-2.33-2.2-3.35-1.43-1.65-3.17-2.86-5.17-3.71-.88-.37-1.8-.66-2.69-.99-.06-.02-.14-.1-.15-.16-.16-1.23-.32-2.46-.48-3.72Z"/>
          <path class="cls-3" d="m353.65,53.92h-24.79c.06-.57.09-1.13.19-1.67.46-2.61,1.91-4.55,4.09-5.98,1.38-.91,2.9-1.48,4.51-1.83,1.57-.34,3.17-.46,4.77-.35,2.24.16,4.38.69,6.35,1.8,1.75.99,3.15,2.32,4.03,4.16.46.96.72,1.98.8,3.04.02.27.03.55.05.83Z"/>
          <path class="cls-3" d="m353.59,57.24v3.26h-24.67v-3.26h24.67Z"/>
          <path class="cls-3" d="m328.9,63.82h24.74c0,.3,0,.6,0,.89,0,.27,0,.54,0,.81-.03.81-.71,1.51-1.52,1.57-.1,0-.21.01-.31.01-7.04,0-14.08,0-21.13,0-.96,0-1.66-.66-1.76-1.41-.04-.3-.02-.62-.02-.92,0-.31,0-.63,0-.96Z"/>
        </g>
      </g>
      <text class="cls-7" transform="translate(143.42 67.2)"><tspan class="cls-5" x="0" y="0">F</tspan><tspan x="28.21" y="0">OOD</tspan></text>
      <g>
        <line class="cls-1" x1="116" x2="116" y2="6"/>
        <line class="cls-2" x1="116" y1="18.28" x2="116" y2="85.83"/>
        <line class="cls-1" x1="116" y1="91.97" x2="116" y2="97.97"/>
      </g>
    </g>
  </g>
</svg>