<?xml version="1.0" encoding="UTF-8"?>
<svg id="_Слой_2" data-name="Слой 2" xmlns="http://www.w3.org/2000/svg" xmlns:xlink="http://www.w3.org/1999/xlink" viewBox="0 0 250 158">
  <defs>
    <style>
      .cls-1 {
        filter: url(#drop-shadow-1);
      }

      .cls-1, .cls-2, .cls-3 {
        fill: #fffde1;
      }

      .cls-2 {
        filter: url(#drop-shadow-2);
      }

      .cls-3 {
        filter: url(#drop-shadow-3);
      }
    </style>
    <filter id="drop-shadow-1" filterUnits="userSpaceOnUse">
      <feOffset dx="12" dy="12"/>
      <feGaussianBlur result="blur" stdDeviation="10"/>
      <feFlood flood-color="#000" flood-opacity="1"/>
      <feComposite in2="blur" operator="in"/>
      <feComposite in="SourceGraphic"/>
    </filter>
    <filter id="drop-shadow-2" filterUnits="userSpaceOnUse">
      <feOffset dx="12" dy="12"/>
      <feGaussianBlur result="blur-2" stdDeviation="10"/>
      <feFlood flood-color="#000" flood-opacity="1"/>
      <feComposite in2="blur-2" operator="in"/>
      <feComposite in="SourceGraphic"/>
    </filter>
    <filter id="drop-shadow-3" filterUnits="userSpaceOnUse">
      <feOffset dx="12" dy="12"/>
      <feGaussianBlur result="blur-3" stdDeviation="10"/>
      <feFlood flood-color="#000" flood-opacity="1"/>
      <feComposite in2="blur-3" operator="in"/>
      <feComposite in="SourceGraphic"/>
    </filter>
  </defs>
  <g id="_SMM" data-name="+SMM">
    <path class="cls-1" d="m177.83,18.99H48.06c-16.34,0-29.59,13.25-29.59,29.59v37.05c0,16.34,13.25,29.59,29.59,29.59h129.77c16.34,0,29.58-13.25,29.58-29.59v-37.05c0-16.34-13.24-29.59-29.58-29.59Zm14.78,59.35h-.07v1.41c-.02.46-.05.94-.07,1.4,0,.26,0,.52,0,.78-.02.42-.05.84-.07,1.25v1.48h-.07c0,.07,0,.16,0,.23,0,.11,0,.21,0,.31,0,.1,0,.21,0,.31-.02.18-.05.36-.07.55-.3,3.05-1.02,5.99-2.32,8.76-.89,1.9-2.08,3.58-3.53,5.1-1.34,1.42-2.83,2.63-4.5,3.63-1.89,1.12-3.93,1.89-6.07,2.38-1.22.29-2.47.47-3.71.69-.17.03-.36.02-.54.02-.63.06-1.25.11-1.87.16h-.24c-.41.02-.83.05-1.24.07-.16,0-.31,0-.47,0-.36.02-.73.05-1.09.07h-.85c-.62.02-1.25.05-1.87.07-.62,0-1.25,0-1.87,0-.32.02-.65.07-.97.07-2.24,0-4.5,0-6.75,0h-10.06c-1.12-.02-2.24-.05-3.35-.07-.36,0-.73,0-1.09,0-.05,0-.1,0-.16,0-.46-.02-.94-.06-1.4-.08h-.47c-.44-.02-.88-.05-1.32-.07-.12,0-.26,0-.39,0-4.07-.16-7.99-.91-11.64-2.78-2.51-1.28-4.6-3.11-6.38-5.27-2.42-2.93-3.73-6.35-4.45-10.04-.08-.44-.2-.88-.29-1.32-.02-.12,0-.26,0-.38-.02-.18-.05-.36-.07-.55v-.23c-.02-.16-.05-.31-.07-.47,0-.1,0-.21,0-.31-.02-.22-.05-.42-.07-.63v-1.09c-.02-.07-.05-.16-.07-.23v-1.4c-.02-.5-.05-.99-.07-1.48,0-.21,0-.41,0-.63-.02-.62-.05-1.24-.07-1.87v-1.87c-.02-.1-.05-.21-.07-.31v-15.68c0-1.32,0-2.63,0-3.95,0-.24.05-.49.07-.73v-1.09c.02-.52.05-1.04.07-1.56,0-.21,0-.41,0-.63.02-.46.05-.94.07-1.4v-1.25s.05-.1.07-.15v-.79s.06-.1.08-.15c0-.13,0-.26,0-.39,0-.08,0-.16,0-.24l.15-1.09c.21-1,.38-2.01.63-3.01.51-2.03,1.23-3.99,2.31-5.8.89-1.49,1.9-2.91,3.22-4.07.65-.6,1.25-1.24,1.95-1.79,2.09-1.63,4.45-2.73,6.98-3.5,1.66-.5,3.36-.79,5.08-1,.17-.02.34,0,.51-.02h.07c.24-.02.47-.05.7-.07.07,0,.16,0,.23,0,.26-.02.52-.05.78-.07h.55c.31-.02.63-.05.94-.07.24,0,.47,0,.7,0,.39-.02.78-.05,1.17-.07h.16c.62-.02,1.24-.07,1.86-.07,1.04,0,2.1,0,3.15,0,.17,0,.35-.05.53-.07h18.95c.12.02.25.07.38.07,1.61.06,3.23.11,4.84.17,4.13.12,8.13.85,11.85,2.73,1.71.87,3.25,2,4.64,3.33,1.7,1.62,3.12,3.44,4.17,5.54,1.13,2.31,1.9,4.74,2.27,7.3.12.82.22,1.65.31,2.47.02.18.05.36.07.55,0,.18,0,.36,0,.55,0,.12,0,.26,0,.39v.07c.03.52.06,1.04.08,1.56v.24c.02.51.05,1.04.07,1.56v.46c.02.81.06,1.61.08,2.42v2.26s.05,0,.07,0v19.41Z"/>
    <path class="cls-2" d="m181.19,43.12s-.03.02-.05.03v.16c-.02.53-.15,1.04-.36,1.53-.22.51-.52.95-.9,1.35-.63.64-1.37,1.08-2.24,1.28-.23.05-.47.07-.7.11-.04,0-.09,0-.13,0,0,0-.02.02-.03.03h-.38s-.04-.02-.05-.03c-.03,0-.07,0-.11,0-.49-.03-.97-.15-1.42-.34-.53-.22-1.01-.53-1.42-.94-.5-.49-.87-1.07-1.11-1.74-.14-.39-.23-.8-.25-1.21v-.16l-.03-.03c0-.12.02-.23.03-.35,0-.59.16-1.14.39-1.68.22-.49.53-.93.9-1.31.42-.43.91-.76,1.46-.99.51-.22,1.03-.35,1.58-.36.1,0,.2-.02.29-.02.07,0,.13.02.2.03.23.03.46.04.68.09,1.15.25,2.07.86,2.75,1.82.53.75.83,1.58.83,2.5,0,.01.02.02.03.03,0,.07.02.14.03.21Z"/>
    <path class="cls-3" d="m174.9,66.66s-.08-.08-.12-.14c-.03-4.5-1.46-8.53-4.05-12.16-3.31-4.65-7.8-7.61-13.38-8.84-1.09-.25-2.22-.3-3.33-.44-.33-.04-.65-.08-.97-.12-.47.03-.94.1-1.42.11-2.68.04-5.22.68-7.68,1.73-2.68,1.13-5.05,2.75-7.08,4.82-1.82,1.86-3.31,3.98-4.39,6.38-1.16,2.61-1.89,5.29-1.92,8.15-.04.57-.08,1.13-.12,1.7l.12.12v.79c.08,2.02.51,3.98,1.2,5.88,1.17,3.23,2.98,6.05,5.41,8.45,2,1.96,4.31,3.47,6.89,4.56,2.21.92,4.5,1.52,6.9,1.64.18,0,.36.01.52.01.08.04.18.08.26.12h1.82s.08-.08.12-.12c.22,0,.44-.01.65-.01,1.13-.17,2.28-.26,3.4-.51,4.25-.97,7.87-3.09,10.91-6.2,1.84-1.91,3.31-4.09,4.36-6.54,1.01-2.37,1.66-4.82,1.75-7.41v-.77c.08-.04.17-.1.25-.14-.04-.35-.08-.69-.12-1.04Zm-9.55.9v.44c-.06,1.49-.43,2.89-1.01,4.26-.6,1.41-1.45,2.66-2.5,3.76-1.74,1.78-3.82,3-6.26,3.56-.64.14-1.3.2-1.95.29-.12,0-.25,0-.37,0-.02.02-.05.05-.07.07h-1.05s-.1-.05-.15-.07c-.1,0-.2,0-.3,0-1.38-.07-2.69-.41-3.96-.94-1.48-.63-2.81-1.49-3.96-2.62-1.39-1.38-2.43-3-3.11-4.85-.4-1.09-.64-2.22-.69-3.38v-.45l-.07-.07c.02-.32.05-.65.07-.97.02-1.64.44-3.18,1.1-4.68.62-1.38,1.47-2.59,2.52-3.66,1.17-1.19,2.53-2.12,4.07-2.77,1.41-.6,2.87-.97,4.41-.99.28,0,.55-.05.82-.06.18.02.36.05.55.07.63.08,1.28.11,1.91.25,3.2.71,5.78,2.4,7.68,5.07,1.48,2.08,2.31,4.4,2.32,6.98.02.03.05.06.07.08.02.2.05.4.07.59-.05.02-.1.06-.14.08Z"/>
  </g>
</svg>